# xmcd
#
# Track frame offsets: 
#        150
#        18323
#        41292
#        54884
#        71313
#        97362
#        112246
#        129063
#        148372
#        167498
#
# Disc length: 2509 seconds
#
# Revision: 0
# Processed by: cddbd v1.5.2PL0 Copyright (c) Steve Scherf et al.
# Submitted via: ExactAudioCopy v0.99pb4
#
DISCID=8409cb0a
DTITLE=The Mike Reilly Band  - Ol' Knuckleheads
DYEAR=2003
DGENRE=Blues: Guitar Blues 
TTITLE0=Bang, Bang, Bang
TTITLE1=Living On Love
TTITLE2=Come Back To Haunt You
TTITLE3=Party Till the Cows Come Home
TTITLE4=Queen of Hearts
TTITLE5=I Forget To Forget You
TTITLE6=Nothing But the Blues
TTITLE7=2:10 Train
TTITLE8=Breaking For You
TTITLE9=Lamar's Tune
EXTD=
EXTT0=
EXTT1=
EXTT2=
EXTT3=
EXTT4=
EXTT5=
EXTT6=
EXTT7=
EXTT8=
EXTT9=
PLAYORDER=
